<?xml version="1.0" standalone="no"?>
<!DOCTYPE svg PUBLIC "-//W3C//DTD SVG 20010904//EN"
 "http://www.w3.org/TR/2001/REC-SVG-20010904/DTD/svg10.dtd">
<svg version="1.0" xmlns="http://www.w3.org/2000/svg"
 width="640.000000pt" height="640.000000pt" viewBox="0 0 640.000000 640.000000"
 preserveAspectRatio="xMidYMid meet">
<metadata>
Created by potrace 1.11, written by Peter Selinger 2001-2013
</metadata>
<g transform="translate(0.000000,640.000000) scale(0.100000,-0.100000)"
fill="#000000" stroke="none">
<path d="M5978 6265 c-2 -2 -34 -6 -73 -9 -38 -4 -83 -8 -100 -11 -16 -2 -48
-6 -70 -9 -22 -3 -69 -10 -105 -15 -36 -6 -83 -12 -105 -14 -22 -2 -70 -13
-105 -25 -36 -11 -99 -30 -140 -42 -139 -39 -404 -132 -480 -167 -404 -189
-672 -357 -975 -611 -259 -217 -576 -562 -769 -837 -27 -38 -50 -71 -52 -73
-1 -2 -22 7 -46 19 -133 69 -315 58 -505 -31 -334 -156 -714 -544 -1128 -1148
l-98 -144 30 -29 29 -30 60 52 c32 29 91 80 129 114 114 102 249 211 404 328
317 240 537 359 677 366 43 2 54 -2 77 -24 l26 -27 -40 -78 c-24 -48 -45 -77
-52 -74 -8 3 -26 -30 -51 -93 -21 -54 -44 -111 -51 -128 -8 -16 -38 -89 -68
-162 l-54 -132 102 -104 101 -105 -38 -11 c-68 -21 -233 -109 -329 -177 -134
-95 -246 -191 -382 -327 -128 -130 -202 -221 -322 -397 -206 -302 -330 -456
-514 -641 -184 -183 -361 -323 -564 -442 -87 -52 -269 -144 -336 -171 -55 -21
-50 -27 14 -15 28 5 63 12 79 15 116 20 369 114 527 195 115 59 283 158 408
242 57 38 100 63 95 56 -15 -25 -216 -282 -308 -394 -96 -116 -99 -120 -247
-285 -116 -131 -380 -395 -477 -478 -40 -34 -70 -62 -66 -62 11 0 172 98 244
148 73 51 307 220 330 239 8 7 71 56 140 110 69 53 127 100 130 103 3 3 75 61
160 130 85 68 157 127 160 130 3 3 64 55 135 115 72 60 178 151 238 203 59 51
107 89 107 83 0 -5 -4 -12 -9 -15 -32 -20 -469 -660 -597 -876 -101 -169 -183
-323 -154 -290 166 190 478 502 656 655 160 139 199 171 437 359 133 105 258
205 277 221 84 70 312 308 379 395 147 190 316 458 356 563 l22 59 99 -101 99
-100 160 69 c88 39 169 74 180 79 249 120 317 151 329 151 24 0 56 -50 56 -87
0 -75 -67 -229 -167 -386 -80 -125 -307 -420 -429 -557 -72 -81 -231 -256
-256 -282 -34 -35 -34 -40 -3 -73 l24 -27 128 83 c495 323 853 631 1069 921
69 94 159 273 183 367 32 124 17 279 -34 357 -13 21 -11 24 28 50 77 52 281
206 367 277 685 566 1153 1275 1356 2057 35 132 77 346 89 445 3 28 8 70 11
95 3 25 8 136 10 246 l4 202 -41 10 c-34 9 -372 14 -381 7z"/>
</g>
</svg>
